<?xml version="1.0" standalone="no"?>
<!DOCTYPE svg PUBLIC "-//W3C//DTD SVG 20010904//EN"
 "http://www.w3.org/TR/2001/REC-SVG-20010904/DTD/svg10.dtd">
<svg version="1.0" xmlns="http://www.w3.org/2000/svg"
 width="512.000000pt" height="512.000000pt" viewBox="0 0 512.000000 512.000000"
 preserveAspectRatio="xMidYMid meet">

<g transform="translate(0.000000,512.000000) scale(0.100000,-0.100000)"
fill="#000000" stroke="none">
<path d="M50 5107 c-13 -7 -30 -24 -37 -37 -10 -20 -12 -532 -10 -2522 l2
-2497 23 -23 23 -23 2509 0 2509 0 23 23 23 23 0 2509 0 2509 -23 23 -23 23
-2497 2 c-1990 2 -2502 0 -2522 -10z m1260 -171 c0 -2 -224 -215 -498 -472
-273 -258 -527 -497 -564 -533 l-68 -64 0 536 0 537 565 0 c311 0 565 -2 565
-4z m2890 -4 c0 -4 -375 -382 -833 -840 l-832 -832 -300 300 -300 300 60 59
c33 33 280 276 550 540 l489 481 583 0 c321 0 583 -3 583 -8z m740 -315 l0
-322 -280 -280 -280 -280 -280 280 -280 280 322 322 323 323 237 0 238 0 0
-323z m-2270 220 c-109 -108 -1384 -1360 -1538 -1511 l-102 -101 -305 305
c-168 168 -304 308 -303 312 2 3 261 250 577 547 l575 541 595 0 596 0 -95
-93z m1303 -955 l277 -277 -1398 -1398 -1397 -1397 -280 280 -280 280 1395
1395 c767 767 1397 1395 1400 1395 3 0 130 -125 283 -278z m435 -1449 c-293
-293 -537 -533 -543 -533 -5 0 -128 118 -272 262 l-263 263 802 802 803 803 3
-532 2 -533 -532 -532z m-3108 -408 c-608 -608 -1108 -1105 -1112 -1105 -5 0
-8 273 -7 608 l0 607 812 798 812 797 300 -300 300 -300 -1105 -1105z m-700
1380 l305 -306 -360 -353 -360 -353 -3 611 -2 610 47 48 c26 26 52 48 58 48 5
0 147 -137 315 -305z m4340 -1278 l0 -572 -550 -550 -550 -550 -285 285 c-157
157 -285 289 -285 295 0 11 1651 1665 1662 1665 5 0 8 -258 8 -573z m-1210
-362 c0 -5 -354 -364 -787 -797 l-788 -788 -535 0 -535 0 1060 1060 1060 1060
262 -262 c145 -145 263 -267 263 -273z m1210 -1030 l0 -555 -557 0 -558 0 555
555 c305 305 556 555 557 555 2 0 3 -250 3 -555z m-3888 228 l278 -278 -252
-252 -253 -253 -322 0 -323 0 0 237 0 238 292 292 c161 161 295 293 298 293 3
0 130 -125 282 -277z m2378 -348 l285 -285 -75 -75 -74 -75 -573 0 c-315 0
-573 3 -573 7 0 12 704 713 715 713 6 0 138 -128 295 -285z"/>
</g>
</svg>
