<?xml version="1.0" standalone="no"?>
<!DOCTYPE svg PUBLIC "-//W3C//DTD SVG 20010904//EN"
 "http://www.w3.org/TR/2001/REC-SVG-20010904/DTD/svg10.dtd">
<svg version="1.0" xmlns="http://www.w3.org/2000/svg"
 width="512.000000pt" height="512.000000pt" viewBox="0 0 512.000000 512.000000"
 preserveAspectRatio="xMidYMid meet">

<g transform="translate(0.000000,512.000000) scale(0.100000,-0.100000)"
fill="#000000" stroke="none">
<path d="M880 5005 c0 -3 35 -75 78 -161 l77 -155 -109 -215 -110 -214 -203 0
-203 0 -109 218 -109 219 50 92 c27 51 48 94 46 96 -9 8 -150 76 -153 73 -1
-2 -33 -63 -69 -135 l-66 -133 130 -260 130 -260 -130 -260 -130 -260 130
-260 130 -260 -130 -254 -131 -254 131 -262 131 -261 -130 -256 -130 -256 131
-261 130 -261 -131 -263 -131 -262 95 -190 c52 -105 97 -190 100 -190 3 0 38
17 79 37 l74 37 -78 156 -78 157 107 209 108 209 206 3 207 2 107 -215 108
-215 -73 -145 c-39 -80 -72 -150 -72 -155 0 -8 129 -80 144 -80 2 0 37 63 78
140 l73 140 205 0 206 0 69 -140 c38 -77 73 -140 77 -140 15 0 148 70 147 78
0 4 -33 72 -73 152 l-74 145 112 222 111 223 205 0 205 0 111 -223 112 -222
-74 -145 c-40 -80 -73 -148 -73 -152 -1 -8 132 -78 147 -78 4 0 39 63 77 140
l69 140 206 0 207 0 72 -140 c40 -77 74 -140 77 -140 12 0 144 71 143 78 0 4
-33 72 -73 152 l-74 145 109 217 109 218 208 0 207 0 109 -218 108 -217 -106
-213 -106 -212 97 0 98 0 85 165 85 165 202 0 202 0 66 -128 c35 -70 69 -133
73 -140 7 -10 25 -5 85 24 l75 37 -75 151 -75 151 131 263 132 263 -131 258
-132 258 131 261 131 262 -130 259 -129 259 130 255 130 256 -131 261 -131
262 131 254 130 254 -131 262 -131 262 50 102 50 101 -74 36 c-41 20 -76 37
-77 37 -2 0 -23 -40 -47 -90 l-44 -90 -211 0 -211 0 -44 90 c-24 50 -47 90
-50 90 -3 -1 -37 -18 -77 -38 l-71 -37 48 -95 48 -95 -109 -217 -109 -218
-205 0 -205 0 -107 215 -108 215 78 155 c42 85 77 157 77 160 0 3 -43 5 -95 5
l-95 0 -57 -115 -58 -115 -205 0 -206 0 -44 90 c-24 50 -48 90 -52 90 -18 0
-148 -71 -148 -80 0 -6 20 -51 45 -100 l45 -90 -107 -215 -108 -215 -205 0
-205 0 -109 218 -108 218 46 92 c25 50 46 94 46 97 0 5 -135 75 -145 75 -2 0
-25 -40 -50 -90 l-45 -90 -208 0 -207 0 -58 115 -57 115 -95 0 c-52 0 -95 -2
-95 -5z m824 -615 l109 -214 -107 -213 -106 -213 -210 0 -210 0 -105 210 -105
210 110 220 110 220 203 -2 202 -3 109 -215z m1562 -12 l106 -213 -112 -218
-112 -217 -201 2 -202 3 -109 215 -109 214 107 213 106 213 210 0 210 0 106
-212z m1555 -1 l107 -212 -109 -218 -109 -217 -205 0 -205 0 -109 217 -109
218 107 212 106 213 210 0 210 0 106 -213z m-3894 -512 l108 -215 -108 -215
-107 -215 -204 0 -205 0 -109 212 -110 212 109 218 109 218 205 0 205 0 107
-215z m1556 -2 l108 -216 -108 -213 -108 -214 -207 0 -208 0 -106 212 -106
213 108 217 109 218 205 0 205 0 108 -217z m1556 0 l109 -218 -107 -212 -106
-213 -207 0 -208 0 -106 212 -106 213 108 217 109 218 202 0 203 0 109 -217z
m-2334 -515 l108 -212 -109 -218 -109 -218 -201 0 -202 0 -111 215 -111 216
108 214 107 215 206 0 206 0 108 -212z m1558 -4 l108 -216 -109 -211 -108
-212 -205 -3 -204 -2 -109 217 -108 217 108 213 109 213 205 0 205 0 108 -216z
m1559 2 l106 -210 -109 -218 -109 -218 -205 0 -205 0 -109 218 -109 218 102
199 c55 110 105 206 109 213 7 9 57 12 215 10 l207 -3 107 -209z m-3898 -514
l108 -217 -106 -213 -106 -212 -208 0 -207 0 -106 213 -107 212 109 218 109
217 203 0 202 0 109 -218z m1560 -2 l109 -215 -109 -212 -109 -213 -207 0
-208 0 -106 212 -106 213 108 217 109 218 205 -2 205 -3 109 -215z m1555 3
l109 -218 -107 -212 -106 -213 -207 0 -208 0 -106 212 -106 213 108 217 109
218 202 0 203 0 109 -217z m-2335 -516 l108 -212 -108 -218 -109 -217 -205 2
-205 3 -108 212 -108 212 108 215 108 216 205 0 205 0 109 -213z m1559 -4
l109 -217 -109 -213 -108 -213 -205 0 -205 0 -108 215 -107 215 107 215 108
215 205 0 205 0 108 -217z m1555 5 l110 -212 -109 -218 -109 -218 -205 0 -205
0 -109 218 -109 218 110 212 110 212 203 0 203 0 110 -212z m-3891 -523 l108
-215 -105 -210 -105 -210 -210 0 -210 0 -106 213 -106 212 106 213 106 212
207 0 208 0 107 -215z m1559 2 l106 -212 -106 -213 -106 -212 -210 0 -210 0
-106 212 -106 213 106 212 106 213 210 0 210 0 106 -213z m1555 -10 l107 -212
-109 -218 -109 -217 -203 0 -202 0 -110 220 -110 220 105 210 105 210 210 0
210 0 106 -213z m-2337 -515 l109 -219 -109 -211 -109 -212 -205 0 -205 0
-108 215 -107 215 107 215 108 215 205 0 205 0 109 -218z m1560 -2 l109 -214
-107 -213 -106 -213 -207 0 -208 0 -108 214 -108 214 108 216 108 216 205 -2
205 -3 109 -215z m1555 2 l109 -219 -107 -209 -108 -209 -202 -3 -201 -2 -110
220 -110 220 105 210 105 210 205 0 205 0 109 -218z"/>
</g>
</svg>
