<?xml version="1.0" standalone="no"?>
<!DOCTYPE svg PUBLIC "-//W3C//DTD SVG 20010904//EN"
 "http://www.w3.org/TR/2001/REC-SVG-20010904/DTD/svg10.dtd">
<svg version="1.0" xmlns="http://www.w3.org/2000/svg"
 width="512.000000pt" height="512.000000pt" viewBox="0 0 512.000000 512.000000"
 preserveAspectRatio="xMidYMid meet">

<g transform="translate(0.000000,512.000000) scale(0.100000,-0.100000)"
fill="#000000" stroke="none">
<path d="M180 5111 c-69 -21 -121 -65 -156 -131 -18 -33 -19 -68 -19 -585 0
-544 0 -550 22 -590 28 -52 68 -89 123 -114 43 -20 64 -21 420 -21 228 0 390
4 412 10 55 16 119 69 146 123 49 95 50 91 -127 651 -88 280 -172 527 -185
550 -13 22 -38 51 -55 64 -64 47 -98 52 -335 51 -121 0 -232 -4 -246 -8z m464
-172 c32 -15 23 8 201 -556 103 -327 144 -470 139 -488 -14 -54 -18 -55 -407
-55 l-358 0 -24 25 -25 24 0 506 0 506 25 24 c24 25 25 25 224 25 129 0 209
-4 225 -11z"/>
<path d="M1240 5111 c-104 -32 -168 -112 -177 -220 -4 -51 11 -103 160 -573
119 -375 171 -526 191 -552 15 -20 48 -48 74 -63 47 -28 48 -28 277 -33 127
-3 237 -9 246 -15 8 -5 186 -130 395 -276 208 -146 395 -275 414 -285 32 -17
63 -19 328 -22 343 -4 372 1 445 71 77 76 78 83 75 553 -3 386 -4 411 -23 448
-24 47 -956 915 -1020 949 -40 22 -43 22 -700 24 -363 1 -671 -2 -685 -6z
m1342 -198 c99 -88 837 -769 876 -808 l42 -44 0 -375 c0 -254 -4 -383 -11
-399 -20 -43 -44 -47 -323 -47 -258 0 -264 0 -297 23 -19 13 -198 138 -399
279 -201 140 -381 264 -400 274 -31 17 -65 20 -268 24 -218 5 -235 6 -248 25
-8 11 -37 90 -64 175 -190 601 -260 826 -260 842 0 10 11 30 25 43 l24 25 631
0 630 0 42 -37z"/>
<path d="M3430 5111 c-116 -36 -188 -141 -177 -259 2 -33 12 -72 20 -88 16
-32 103 -118 302 -301 152 -140 190 -159 288 -150 36 3 279 70 586 161 572
168 581 172 636 261 27 43 30 57 30 129 0 70 -4 87 -28 128 -31 53 -79 94
-134 114 -31 10 -183 13 -768 13 -401 -1 -741 -4 -755 -8z m1495 -186 c30 -29
33 -83 8 -114 -14 -17 -139 -57 -543 -176 -289 -85 -538 -155 -553 -155 -28 0
-146 101 -344 294 -82 79 -91 109 -48 151 l24 25 716 0 716 0 24 -25z"/>
<path d="M4405 4284 c-458 -135 -477 -143 -530 -229 l-30 -48 -3 -358 c-2
-233 1 -372 8 -398 15 -58 68 -121 125 -150 73 -38 190 -38 612 -2 337 28 355
31 403 57 28 15 62 42 76 61 54 71 55 82 52 569 -3 438 -4 450 -25 489 -44 82
-130 135 -218 134 -34 0 -187 -41 -470 -125z m520 -69 l25 -24 0 -420 0 -420
-24 -27 -23 -28 -329 -27 c-181 -16 -366 -28 -412 -29 -87 0 -134 15 -146 45
-3 9 -6 164 -6 345 0 297 2 330 18 349 13 15 119 51 417 140 220 66 413 120
428 120 17 1 37 -8 52 -24z"/>
<path d="M172 3486 c-59 -19 -107 -58 -139 -114 l-28 -47 0 -895 0 -895 22
-41 c25 -48 83 -101 129 -120 52 -22 143 -18 195 9 24 12 124 82 222 156 137
103 183 143 204 179 52 88 51 92 -122 852 -86 377 -163 711 -172 742 -38 137
-179 217 -311 174z m115 -171 c12 -8 26 -30 32 -48 19 -61 321 -1403 321
-1427 0 -14 -4 -30 -8 -37 -4 -7 -86 -71 -182 -143 -192 -144 -219 -155 -259
-104 -21 27 -21 32 -21 871 0 578 3 851 11 864 19 37 71 48 106 24z"/>
<path d="M847 3484 c-90 -28 -167 -135 -167 -230 0 -45 301 -1350 321 -1391
22 -45 74 -92 124 -111 38 -15 353 -92 375 -92 48 0 126 34 166 73 64 62 862
1036 887 1082 44 84 23 206 -49 278 -30 30 -489 353 -544 383 -33 18 -66 19
-550 21 -434 2 -523 0 -563 -13z m1097 -200 c239 -163 432 -304 449 -326 13
-17 17 -35 14 -50 -9 -34 -855 -1058 -884 -1069 -18 -7 -61 0 -166 26 -178 45
-193 51 -206 83 -6 15 -76 315 -156 667 -156 685 -154 678 -102 703 14 7 188
11 503 11 l482 1 66 -46z"/>
<path d="M4650 2934 c-85 -8 -175 -19 -200 -26 -55 -15 -126 -78 -151 -133 -9
-22 -70 -226 -134 -454 -127 -451 -128 -456 -84 -544 32 -64 619 -650 683
-682 62 -31 151 -34 211 -6 53 24 119 100 134 153 9 32 11 240 9 788 -3 741
-3 745 -25 785 -46 87 -129 135 -228 133 -33 0 -130 -7 -215 -14z m275 -179
l25 -24 0 -719 c0 -713 0 -720 -21 -746 -15 -19 -29 -26 -57 -26 -34 0 -53 17
-334 297 -163 163 -302 309 -308 323 -9 23 6 85 105 436 85 296 123 415 139
431 18 19 40 24 181 36 237 21 242 21 270 -8z"/>
<path d="M2889 2886 c-21 -7 -49 -23 -64 -35 -42 -32 -1022 -1226 -1047 -1274
-39 -77 -31 -137 45 -336 71 -187 98 -232 168 -271 l44 -25 445 0 445 0 45 27
c69 41 862 844 883 893 9 22 62 198 117 392 107 378 115 424 81 498 -23 51
-98 118 -149 133 -59 18 -964 16 -1013 -2z m985 -177 c16 -13 26 -30 26 -47 0
-29 -191 -707 -208 -738 -6 -10 -190 -198 -409 -416 l-399 -398 -401 0 c-367
0 -403 1 -421 17 -13 11 -47 87 -82 183 -50 133 -59 168 -51 186 11 24 918
1132 979 1197 l36 37 452 0 c441 0 452 0 478 -21z"/>
<path d="M909 1567 c-24 -12 -225 -158 -446 -324 -341 -257 -406 -309 -430
-350 l-28 -48 0 -335 0 -335 28 -48 c32 -55 93 -102 149 -117 24 -7 204 -10
500 -8 453 3 464 3 503 25 22 11 52 34 66 50 36 38 468 688 485 729 30 71 19
130 -61 345 -87 231 -93 245 -132 280 -45 43 -79 55 -290 108 -225 57 -279 62
-344 28z m307 -193 c102 -26 194 -54 204 -63 21 -18 160 -380 160 -418 0 -28
-450 -707 -475 -717 -9 -3 -212 -6 -451 -6 l-435 0 -24 25 -25 24 0 289 c0
215 3 292 13 305 6 9 189 149 406 312 256 191 403 295 418 295 13 0 107 -21
209 -46z"/>
<path d="M3860 1561 c-61 -20 -103 -58 -422 -378 -325 -327 -337 -340 -353
-395 -14 -48 -16 -100 -13 -330 3 -271 3 -274 29 -323 28 -56 91 -109 147
-125 24 -6 320 -10 852 -10 655 1 822 4 853 14 55 20 103 61 134 114 27 45 28
52 28 182 0 120 -2 139 -22 175 -27 51 -1016 1037 -1062 1060 -39 20 -134 28
-171 16z m592 -659 l498 -497 0 -93 c0 -85 -2 -95 -25 -117 l-24 -25 -806 0
c-788 0 -805 0 -825 20 -11 11 -22 30 -25 42 -3 13 -5 135 -3 271 l3 247 325
325 c281 280 330 325 355 325 26 0 95 -65 527 -498z"/>
<path d="M1982 755 c-70 -22 -106 -58 -212 -215 -123 -183 -139 -217 -140
-293 0 -97 46 -172 135 -220 39 -22 47 -22 500 -22 452 0 461 0 500 22 52 28
89 68 114 123 18 40 21 66 21 236 0 185 -1 192 -26 242 -32 64 -83 108 -148
127 -68 21 -679 21 -744 0z m729 -184 c17 -21 19 -41 19 -188 0 -161 0 -164
-25 -188 l-24 -25 -414 0 c-404 0 -415 1 -441 21 -47 37 -37 66 76 237 56 85
112 158 123 163 11 4 166 7 343 6 l324 -2 19 -24z"/>
</g>
</svg>
